<svg width="24" height="40" viewBox="0 0 24 40" fill="none" xmlns="http://www.w3.org/2000/svg">
<mask id="mask0_7255_141" style="mask-type:alpha" maskUnits="userSpaceOnUse" x="0" y="8" width="24" height="24">
<rect y="8" width="24" height="24" fill="#D9D9D9"/>
</mask>
<g mask="url(#mask0_7255_141)">
<path d="M19.6 29L13.3 22.7C12.8 23.1 12.225 23.4167 11.575 23.65C10.925 23.8833 10.2333 24 9.5 24C7.68333 24 6.14583 23.3708 4.8875 22.1125C3.62917 20.8542 3 19.3167 3 17.5C3 15.6833 3.62917 14.1458 4.8875 12.8875C6.14583 11.6292 7.68333 11 9.5 11C11.3167 11 12.8542 11.6292 14.1125 12.8875C15.3708 14.1458 16 15.6833 16 17.5C16 18.2333 15.8833 18.925 15.65 19.575C15.4167 20.225 15.1 20.8 14.7 21.3L21 27.6L19.6 29ZM9.5 22C10.75 22 11.8125 21.5625 12.6875 20.6875C13.5625 19.8125 14 18.75 14 17.5C14 16.25 13.5625 15.1875 12.6875 14.3125C11.8125 13.4375 10.75 13 9.5 13C8.25 13 7.1875 13.4375 6.3125 14.3125C5.4375 15.1875 5 16.25 5 17.5C5 18.75 5.4375 19.8125 6.3125 20.6875C7.1875 21.5625 8.25 22 9.5 22Z" fill="#999999"/>
</g>
</svg>
